<svg id="svg" version="1.1" xmlns="http://www.w3.org/2000/svg" xmlns:xlink="http://www.w3.org/1999/xlink" width="400" height="208.8" viewBox="0, 0, 400,208.8"><g id="svgg"><path id="path0" d="M5.000 104.400 L 5.000 203.600 200.000 203.600 L 395.000 203.600 395.000 104.400 L 395.000 5.200 200.000 5.200 L 5.000 5.200 5.000 104.400 M385.400 104.400 L 385.400 194.000 200.000 194.000 L 14.600 194.000 14.600 104.400 L 14.600 14.800 200.000 14.800 L 385.400 14.800 385.400 104.400 M141.800 35.306 C 129.129 41.269,128.800 41.457,128.800 42.711 C 128.800 43.947,129.397 44.223,134.800 45.480 C 138.736 46.395,140.594 47.465,141.424 49.292 C 141.872 50.277,142.020 163.936,141.577 166.040 C 140.709 170.163,137.959 172.370,132.286 173.499 C 128.573 174.238,127.545 174.941,128.170 176.315 L 128.391 176.800 148.756 176.800 C 170.618 176.800,169.600 176.851,169.600 175.760 C 169.600 174.646,168.756 174.169,165.766 173.596 C 161.247 172.729,158.990 171.534,157.412 169.170 C 155.740 166.667,155.912 174.259,155.800 98.171 C 155.702 31.923,155.692 30.433,155.319 30.021 C 154.659 29.292,154.166 29.485,141.800 35.306 M29.484 50.870 C 29.427 51.018,29.407 51.758,29.440 52.514 L 29.500 53.888 31.705 54.133 C 38.431 54.881,42.865 57.999,43.601 62.500 C 43.878 64.191,43.868 160.852,43.591 162.600 C 42.829 167.412,37.285 172.291,31.502 173.239 C 29.168 173.622,29.400 173.405,29.400 175.205 L 29.400 176.802 54.450 176.751 L 79.500 176.700 79.559 175.262 C 79.627 173.578,79.566 173.515,77.700 173.343 C 76.093 173.195,73.634 172.451,69.884 170.981 C 65.133 169.118,63.121 167.586,61.842 164.856 L 61.300 163.700 61.247 139.100 C 61.190 113.069,61.168 113.698,62.144 113.177 C 63.022 112.707,100.806 112.773,102.652 113.248 C 107.451 114.481,109.834 117.850,110.440 124.258 L 110.663 126.615 112.281 126.558 L 113.900 126.500 113.900 109.300 L 113.900 92.100 112.300 92.100 L 110.700 92.100 110.543 93.500 C 109.813 99.994,107.414 103.024,102.158 104.088 C 100.162 104.492,62.885 104.566,62.137 104.167 C 61.175 103.655,61.213 104.567,61.206 81.641 L 61.200 59.982 61.691 59.491 L 62.182 59.000 80.941 59.002 C 103.534 59.004,103.651 59.013,106.934 61.113 C 110.246 63.232,111.721 65.677,113.117 71.366 C 113.595 73.310,114.035 75.103,114.096 75.350 C 114.239 75.928,115.971 76.017,116.426 75.469 C 116.741 75.090,116.950 54.050,116.656 52.270 C 116.352 50.428,120.924 50.601,72.344 50.600 C 36.646 50.600,29.570 50.645,29.484 50.870 M274.650 51.103 C 269.819 52.153,266.955 56.795,268.025 61.840 C 269.449 68.551,278.746 70.942,283.277 65.762 C 289.011 59.207,283.155 49.256,274.650 51.103 M206.261 94.009 C 195.342 95.039,184.955 103.144,181.795 113.100 C 180.884 115.970,181.047 120.156,182.087 120.631 C 182.988 121.041,194.586 115.968,195.558 114.739 C 195.678 114.588,195.654 113.841,195.493 112.700 C 193.873 101.257,207.724 95.546,216.322 104.110 C 220.168 107.942,220.654 110.269,220.561 124.434 L 220.500 133.768 220.020 134.279 C 218.277 136.134,211.791 139.033,205.448 140.792 C 184.948 146.479,179.327 150.845,179.306 161.100 C 179.286 170.755,186.965 178.589,196.800 178.950 C 202.395 179.155,204.672 178.050,215.979 169.648 C 218.113 168.062,219.968 166.723,220.101 166.672 C 220.258 166.612,220.606 167.340,221.087 168.739 C 225.150 180.559,229.167 181.810,240.332 174.735 C 248.276 169.701,249.800 168.299,249.800 166.023 C 249.800 164.016,249.354 163.933,247.000 165.500 C 243.304 167.960,238.429 167.775,235.727 165.072 C 234.405 163.750,234.510 165.950,234.399 137.400 L 234.298 111.500 233.748 109.742 C 230.454 99.225,219.209 92.788,206.261 94.009 M283.200 94.117 C 279.372 95.762,259.242 105.413,258.878 105.777 C 258.539 106.116,258.400 106.479,258.400 107.027 C 258.400 108.384,258.575 108.466,264.598 109.894 C 268.435 110.805,270.182 111.838,271.026 113.696 C 271.471 114.676,271.613 163.968,271.177 166.040 C 270.309 170.163,267.559 172.370,261.886 173.499 C 258.444 174.184,257.600 174.652,257.600 175.876 C 257.600 176.832,256.886 176.800,278.433 176.800 C 298.745 176.800,298.786 176.799,299.005 176.390 C 299.763 174.974,298.765 174.248,295.072 173.531 C 290.611 172.665,288.231 171.298,286.714 168.731 C 285.324 166.379,285.400 168.605,285.400 130.140 C 285.400 106.439,285.334 95.269,285.190 94.857 C 285.029 94.395,284.257 93.747,283.941 93.808 C 283.918 93.812,283.585 93.951,283.200 94.117 M334.100 94.083 C 333.594 94.306,314.723 103.201,311.134 104.907 C 309.807 105.539,309.314 106.150,309.341 107.130 C 309.376 108.356,309.822 108.560,315.300 109.870 C 319.751 110.933,321.435 112.025,322.105 114.278 C 322.472 115.514,322.551 163.135,322.190 165.400 C 321.446 170.065,318.511 172.436,311.937 173.683 C 309.146 174.213,307.940 175.169,308.667 176.277 L 309.009 176.800 331.765 176.800 C 356.583 176.800,355.000 176.883,355.000 175.584 C 355.000 174.383,354.721 174.266,350.020 173.496 C 340.692 171.970,337.194 169.754,336.393 164.864 C 336.050 162.773,336.150 122.339,336.501 120.849 C 337.643 116.006,343.632 109.413,347.892 108.309 C 350.720 107.576,354.170 108.348,360.929 111.225 C 362.705 111.981,364.352 112.600,364.589 112.600 C 367.463 112.600,372.000 102.868,369.998 100.998 C 367.691 98.843,358.529 95.592,354.700 95.570 C 351.054 95.549,346.788 99.011,341.155 106.560 C 335.930 113.563,336.200 113.765,336.200 102.835 C 336.200 93.588,336.107 93.199,334.100 94.083 M220.400 140.200 C 220.546 140.473,220.596 143.726,220.557 150.450 L 220.500 160.300 219.958 161.400 C 218.601 164.155,213.471 167.712,208.405 169.409 C 200.089 172.195,192.873 166.809,193.256 158.100 C 193.508 152.353,194.343 151.649,209.068 144.770 C 220.456 139.450,220.080 139.602,220.400 140.200 " stroke="none" fill="#fbfbfb" fill-rule="evenodd"></path><path id="path1" d="M0.000 104.400 L 0.000 208.600 200.000 208.600 L 400.000 208.600 400.000 104.400 L 400.000 0.200 200.000 0.200 L 0.000 0.200 0.000 104.400 M395.100 104.400 L 395.100 203.700 200.000 203.700 L 4.900 203.700 4.849 104.600 C 4.821 50.095,4.840 5.387,4.893 5.250 C 4.968 5.050,44.103 5.010,200.044 5.050 L 395.100 5.100 395.100 104.400 M14.800 104.400 L 14.800 193.800 200.000 193.800 L 385.200 193.800 385.200 104.400 L 385.200 15.000 200.000 15.000 L 14.800 15.000 14.800 104.400 M155.228 29.782 L 155.700 30.165 155.800 97.832 L 155.900 165.500 156.327 166.743 C 157.613 170.488,160.061 172.336,165.039 173.321 C 169.336 174.171,170.759 175.241,169.400 176.600 C 168.984 177.016,129.107 177.253,128.463 176.843 C 128.023 176.563,127.815 175.696,128.067 175.191 C 128.457 174.408,129.543 173.948,132.352 173.375 C 138.106 172.202,140.948 169.722,141.602 165.300 C 141.742 164.353,141.791 145.485,141.754 107.000 L 141.700 50.100 141.224 49.133 C 140.328 47.313,138.397 46.364,133.229 45.201 C 129.238 44.303,128.800 44.069,128.800 42.833 C 128.800 41.314,128.677 41.386,141.800 35.203 C 154.839 29.059,154.502 29.195,155.228 29.782 M115.926 50.843 C 116.834 51.340,116.800 50.845,116.800 63.516 C 116.800 76.921,116.918 76.082,115.049 75.961 L 114.120 75.900 113.185 72.100 C 111.569 65.527,110.281 63.320,106.800 61.155 C 103.573 59.148,104.241 59.200,81.687 59.200 L 62.029 59.200 61.615 59.727 C 61.148 60.320,60.941 102.092,61.399 103.297 C 61.839 104.455,61.250 104.425,82.166 104.353 C 101.165 104.288,101.311 104.284,102.865 103.848 C 107.649 102.505,109.937 99.468,110.335 93.933 C 110.455 92.268,110.492 92.155,110.981 91.966 C 111.704 91.686,113.787 91.856,114.013 92.214 C 114.276 92.630,114.257 125.920,113.993 126.413 C 113.742 126.882,111.002 126.994,110.652 126.550 C 110.543 126.413,110.398 125.388,110.328 124.274 C 109.937 118.022,107.119 114.249,102.132 113.299 C 100.152 112.921,62.865 112.844,62.170 113.216 C 61.175 113.748,61.200 113.100,61.200 138.552 C 61.200 166.453,61.041 164.677,63.775 167.405 C 65.909 169.535,74.648 173.200,77.593 173.200 C 78.004 173.200,78.624 173.299,78.970 173.420 L 79.600 173.639 79.600 175.198 C 79.600 176.435,79.535 176.782,79.284 176.879 C 78.626 177.131,29.694 177.014,29.440 176.760 C 29.301 176.621,29.200 175.954,29.200 175.171 C 29.200 173.580,29.536 173.200,30.944 173.200 C 34.758 173.200,40.921 168.999,42.682 165.199 C 43.633 163.149,43.608 164.632,43.553 111.900 L 43.500 61.700 42.879 60.390 C 41.315 57.089,36.705 54.588,31.572 54.256 C 29.358 54.112,29.199 53.984,29.203 52.336 C 29.206 51.038,29.308 50.734,29.800 50.545 C 30.676 50.207,115.301 50.500,115.926 50.843 M280.277 51.467 C 284.520 53.396,286.807 58.957,285.076 63.132 C 280.786 73.477,265.093 67.997,268.008 57.172 C 269.349 52.190,275.539 49.312,280.277 51.467 M216.000 94.465 C 226.044 96.610,233.334 103.795,234.396 112.595 C 234.524 113.663,234.600 123.308,234.600 138.682 L 234.600 163.074 235.026 163.954 C 236.666 167.341,242.993 168.181,246.780 165.514 C 249.146 163.848,249.745 163.875,249.946 165.656 C 250.215 168.044,248.747 169.467,240.719 174.604 C 229.322 181.895,224.988 180.667,221.117 169.050 C 220.704 167.813,220.283 166.800,220.180 166.800 C 220.078 166.800,218.128 168.179,215.847 169.864 C 207.476 176.048,205.292 177.429,202.400 178.364 C 190.538 182.200,177.431 171.243,179.176 158.948 C 180.409 150.265,186.712 145.801,204.669 140.894 C 211.663 138.983,219.368 135.555,220.211 133.979 C 220.354 133.712,220.400 130.084,220.355 122.743 L 220.288 111.900 219.741 110.139 C 216.639 100.133,205.324 96.762,198.247 103.735 C 195.931 106.017,195.117 108.704,195.585 112.529 L 195.848 114.680 195.274 115.152 C 194.145 116.082,185.343 120.042,183.034 120.660 C 179.418 121.627,180.784 112.350,185.162 106.200 C 191.993 96.606,204.226 91.950,216.000 94.465 M284.919 94.221 C 285.290 94.631,285.303 95.586,285.400 130.071 L 285.500 165.500 285.927 166.743 C 287.244 170.579,289.576 172.297,294.942 173.388 C 299.175 174.249,300.345 175.227,298.885 176.686 C 298.462 177.109,258.501 177.172,257.949 176.750 C 256.256 175.456,257.836 174.195,262.263 173.306 C 267.666 172.222,270.559 169.630,271.203 165.300 C 271.340 164.373,271.392 155.555,271.355 139.195 L 271.300 114.489 270.789 113.496 C 269.813 111.599,268.258 110.808,263.300 109.684 C 259.222 108.760,258.677 108.541,258.403 107.708 C 257.800 105.882,257.588 106.015,271.416 99.505 C 283.784 93.683,284.263 93.496,284.919 94.221 M335.592 93.996 C 336.328 94.390,336.400 95.220,336.400 103.336 C 336.400 113.305,336.159 113.080,340.550 107.200 C 346.755 98.890,350.914 95.400,354.614 95.400 C 358.550 95.400,368.499 99.096,370.289 101.223 C 371.709 102.911,368.287 111.012,365.589 112.353 L 364.677 112.805 363.589 112.420 C 362.990 112.209,361.645 111.658,360.600 111.197 C 354.372 108.450,350.064 107.612,347.253 108.600 C 343.412 109.950,338.135 115.801,336.790 120.200 C 336.402 121.468,336.394 122.036,336.446 143.500 L 336.500 165.500 336.982 166.700 C 338.383 170.192,341.915 172.042,349.600 173.310 C 354.614 174.137,355.200 174.399,355.200 175.809 C 355.200 177.082,356.814 177.000,331.766 177.000 C 306.925 177.000,308.400 177.072,308.400 175.856 C 308.400 174.558,309.148 174.142,312.827 173.394 C 318.303 172.281,320.857 170.274,321.902 166.261 C 322.278 164.817,322.356 115.468,321.984 114.129 C 321.450 112.207,319.445 110.958,315.326 109.980 C 309.582 108.617,309.200 108.431,309.200 106.995 C 309.200 105.749,309.697 105.465,322.317 99.497 C 334.123 93.914,334.866 93.607,335.592 93.996 M209.069 144.871 C 198.267 149.921,197.415 150.398,195.312 152.567 C 193.824 154.102,193.514 154.946,193.289 158.082 C 192.777 165.208,198.557 170.884,205.434 170.007 C 211.143 169.280,219.202 164.121,220.175 160.571 C 220.644 158.859,220.393 140.112,219.900 140.048 C 219.680 140.019,214.806 142.190,209.069 144.871 " stroke="none" fill="#44937c" fill-rule="evenodd"></path><path id="path2" d="M4.893 5.250 C 4.840 5.387,4.821 50.095,4.849 104.600 L 4.900 203.700 200.000 203.700 L 395.100 203.700 395.100 104.400 L 395.100 5.100 200.044 5.050 C 44.103 5.010,4.968 5.050,4.893 5.250 M395.000 104.400 L 395.000 203.600 200.000 203.600 L 5.000 203.600 5.000 104.400 L 5.000 5.200 200.000 5.200 L 395.000 5.200 395.000 104.400 M14.693 15.050 C 14.640 15.187,14.621 55.485,14.649 104.600 L 14.700 193.900 200.000 193.900 L 385.300 193.900 385.300 104.400 L 385.300 14.900 200.044 14.850 C 51.943 14.810,14.768 14.850,14.693 15.050 M385.200 104.400 L 385.200 193.800 200.000 193.800 L 14.800 193.800 14.800 104.400 L 14.800 15.000 200.000 15.000 L 385.200 15.000 385.200 104.400 M51.034 50.550 C 62.658 50.578,81.738 50.578,93.434 50.550 C 105.130 50.521,95.620 50.498,72.300 50.498 C 48.980 50.498,39.410 50.521,51.034 50.550 M29.266 52.300 C 29.267 53.070,29.303 53.360,29.346 52.946 C 29.389 52.531,29.389 51.901,29.344 51.546 C 29.300 51.190,29.265 51.530,29.266 52.300 M71.535 59.150 C 76.504 59.180,84.694 59.180,89.735 59.150 C 94.776 59.120,90.710 59.096,80.700 59.096 C 70.690 59.096,66.566 59.120,71.535 59.150 M285.650 59.900 C 285.653 60.340,285.694 60.496,285.741 60.248 C 285.789 59.999,285.787 59.639,285.737 59.448 C 285.687 59.256,285.648 59.460,285.650 59.900 M108.800 62.663 C 108.800 62.697,109.093 62.990,109.450 63.313 L 110.100 63.900 109.513 63.250 C 108.965 62.644,108.800 62.508,108.800 62.663 M111.754 91.945 C 112.113 91.989,112.653 91.989,112.954 91.943 C 113.254 91.897,112.960 91.861,112.300 91.862 C 111.640 91.863,111.394 91.900,111.754 91.945 M114.096 109.300 C 114.096 118.650,114.120 122.446,114.150 117.735 C 114.180 113.024,114.180 105.374,114.150 100.735 C 114.120 96.096,114.096 99.950,114.096 109.300 M183.600 172.863 C 183.600 172.897,183.893 173.190,184.250 173.513 L 184.900 174.100 184.313 173.450 C 183.765 172.844,183.600 172.708,183.600 172.863 " stroke="none" fill="#86b9ae" fill-rule="evenodd"></path><path id="path3" d="M336.291 103.100 C 336.291 107.170,336.317 108.807,336.350 106.737 C 336.382 104.667,336.382 101.337,336.350 99.337 C 336.317 97.337,336.290 99.030,336.291 103.100 M234.497 138.400 C 234.497 151.545,234.521 156.923,234.550 150.350 C 234.579 143.777,234.579 133.022,234.550 126.450 C 234.521 119.877,234.497 125.255,234.497 138.400 M220.492 124.100 C 220.492 128.940,220.518 130.891,220.550 128.436 C 220.582 125.981,220.582 122.021,220.550 119.636 C 220.518 117.251,220.492 119.260,220.492 124.100 M322.297 139.600 C 322.297 152.855,322.321 158.278,322.350 151.650 C 322.379 145.023,322.379 134.177,322.350 127.550 C 322.321 120.922,322.297 126.345,322.297 139.600 M336.296 143.100 C 336.296 154.320,336.320 158.881,336.350 153.235 C 336.379 147.589,336.379 138.409,336.350 132.835 C 336.320 127.261,336.296 131.880,336.296 143.100 M220.492 150.000 C 220.492 155.115,220.518 157.208,220.550 154.650 C 220.581 152.093,220.581 147.908,220.550 145.350 C 220.518 142.793,220.492 144.885,220.492 150.000 " stroke="none" fill="#9cc4bc" fill-rule="evenodd"></path><path id="path4" d="M30.350 54.141 C 30.598 54.189,31.002 54.189,31.250 54.141 C 31.498 54.093,31.295 54.054,30.800 54.054 C 30.305 54.054,30.102 54.093,30.350 54.141 M43.698 112.500 C 43.698 139.670,43.722 150.755,43.750 137.134 C 43.778 123.513,43.778 101.283,43.750 87.734 C 43.722 74.185,43.698 85.330,43.698 112.500 M114.552 75.941 C 114.801 75.989,115.161 75.987,115.352 75.937 C 115.544 75.887,115.340 75.848,114.900 75.850 C 114.460 75.853,114.304 75.894,114.552 75.941 M346.389 100.150 L 345.700 100.900 346.450 100.211 C 346.863 99.832,347.200 99.494,347.200 99.461 C 347.200 99.308,347.031 99.452,346.389 100.150 M228.500 101.200 C 228.930 101.640,229.326 102.000,229.381 102.000 C 229.436 102.000,229.130 101.640,228.700 101.200 C 228.270 100.760,227.874 100.400,227.819 100.400 C 227.764 100.400,228.070 100.760,228.500 101.200 M72.150 112.950 C 77.237 112.980,85.562 112.980,90.650 112.950 C 95.738 112.920,91.575 112.896,81.400 112.896 C 71.225 112.896,67.063 112.920,72.150 112.950 M220.450 114.700 C 220.453 115.140,220.494 115.296,220.541 115.048 C 220.589 114.799,220.587 114.439,220.537 114.248 C 220.487 114.056,220.448 114.260,220.450 114.700 M181.054 117.400 C 181.054 117.895,181.093 118.097,181.141 117.850 C 181.189 117.603,181.189 117.197,181.141 116.950 C 181.093 116.703,181.054 116.905,181.054 117.400 M110.450 125.500 C 110.453 125.940,110.494 126.096,110.541 125.848 C 110.589 125.599,110.587 125.239,110.537 125.048 C 110.487 124.856,110.448 125.060,110.450 125.500 M111.550 126.745 C 111.908 126.789,112.493 126.789,112.850 126.745 C 113.208 126.700,112.915 126.664,112.200 126.664 C 111.485 126.664,111.192 126.700,111.550 126.745 M287.400 169.863 C 287.400 169.897,287.693 170.190,288.050 170.513 L 288.700 171.100 288.113 170.450 C 287.565 169.844,287.400 169.708,287.400 169.863 M29.266 175.100 C 29.267 175.870,29.303 176.160,29.346 175.746 C 29.389 175.331,29.389 174.701,29.344 174.346 C 29.300 173.990,29.265 174.330,29.266 175.100 M42.265 176.950 C 49.067 176.979,60.137 176.979,66.865 176.950 C 73.594 176.921,68.030 176.897,54.500 176.897 C 40.970 176.897,35.464 176.921,42.265 176.950 M138.750 176.950 C 144.277 176.980,153.322 176.980,158.850 176.950 C 164.377 176.920,159.855 176.896,148.800 176.896 C 137.745 176.896,133.222 176.920,138.750 176.950 M268.350 176.950 C 273.877 176.980,282.922 176.980,288.450 176.950 C 293.977 176.920,289.455 176.896,278.400 176.896 C 267.345 176.896,262.822 176.920,268.350 176.950 M320.550 176.950 C 326.738 176.979,336.863 176.979,343.050 176.950 C 349.238 176.921,344.175 176.897,331.800 176.897 C 319.425 176.897,314.363 176.921,320.550 176.950 M197.053 179.144 C 197.357 179.189,197.807 179.188,198.053 179.141 C 198.299 179.093,198.050 179.056,197.500 179.057 C 196.950 179.059,196.749 179.098,197.053 179.144 " stroke="none" fill="#a4cabc" fill-rule="evenodd"></path></g></svg>