<svg id="svg" version="1.1" xmlns="http://www.w3.org/2000/svg" xmlns:xlink="http://www.w3.org/1999/xlink" width="400" height="208.8" viewBox="0, 0, 400,208.8"><g id="svgg"><path id="path0" d="M5.000 104.400 L 5.000 203.600 200.000 203.600 L 395.000 203.600 395.000 104.400 L 395.000 5.200 200.000 5.200 L 5.000 5.200 5.000 104.400 M385.400 104.400 L 385.400 194.000 200.000 194.000 L 14.600 194.000 14.600 104.400 L 14.600 14.800 200.000 14.800 L 385.400 14.800 385.400 104.400 M141.800 35.306 C 129.129 41.269,128.800 41.457,128.800 42.711 C 128.800 43.947,129.397 44.223,134.800 45.480 C 138.736 46.395,140.594 47.465,141.424 49.292 C 141.872 50.277,142.020 163.936,141.577 166.040 C 140.709 170.163,137.959 172.370,132.286 173.499 C 128.573 174.238,127.545 174.941,128.170 176.315 L 128.391 176.800 148.756 176.800 C 170.618 176.800,169.600 176.851,169.600 175.760 C 169.600 174.596,168.832 174.198,165.205 173.480 C 161.259 172.699,158.896 171.393,157.412 169.170 C 155.740 166.667,155.912 174.259,155.800 98.171 C 155.702 31.923,155.692 30.433,155.319 30.021 C 154.659 29.292,154.166 29.485,141.800 35.306 M29.484 50.870 C 29.427 51.018,29.407 51.758,29.440 52.514 L 29.500 53.888 31.705 54.133 C 38.367 54.874,42.768 57.924,43.599 62.377 C 43.880 63.884,43.872 160.823,43.591 162.600 C 42.829 167.412,37.285 172.291,31.502 173.239 C 29.168 173.622,29.400 173.405,29.400 175.205 L 29.400 176.802 54.450 176.751 L 79.500 176.700 79.560 175.305 C 79.630 173.678,79.419 173.400,78.112 173.399 C 76.952 173.399,74.108 172.595,70.709 171.307 C 65.126 169.191,63.224 167.806,61.837 164.845 L 61.300 163.700 61.247 139.100 C 61.190 113.069,61.168 113.698,62.144 113.177 C 63.022 112.707,100.806 112.773,102.652 113.248 C 107.464 114.485,109.833 117.833,110.440 124.258 L 110.663 126.615 112.281 126.558 L 113.900 126.500 113.900 109.300 L 113.900 92.100 112.300 92.100 L 110.700 92.100 110.543 93.500 C 109.813 99.994,107.414 103.024,102.158 104.088 C 100.162 104.492,62.885 104.566,62.137 104.167 C 61.175 103.655,61.213 104.567,61.206 81.641 L 61.200 59.982 61.691 59.491 L 62.182 59.000 80.941 59.002 C 103.534 59.004,103.651 59.013,106.934 61.113 C 110.246 63.232,111.721 65.677,113.117 71.366 C 113.595 73.310,114.035 75.103,114.096 75.350 C 114.239 75.928,115.971 76.017,116.426 75.469 C 116.741 75.090,116.950 54.050,116.656 52.270 C 116.352 50.428,120.924 50.601,72.344 50.600 C 36.646 50.600,29.570 50.645,29.484 50.870 M274.650 51.103 C 269.819 52.153,266.955 56.795,268.025 61.840 C 269.449 68.551,278.746 70.942,283.277 65.762 C 289.011 59.207,283.155 49.256,274.650 51.103 M206.261 94.009 C 193.673 95.197,181.801 105.979,181.259 116.717 C 181.133 119.213,181.363 120.301,182.087 120.631 C 182.988 121.041,194.586 115.968,195.558 114.739 C 195.678 114.588,195.654 113.841,195.493 112.700 C 193.884 101.336,207.681 95.544,216.216 104.000 C 220.175 107.923,220.654 110.177,220.561 124.434 L 220.500 133.768 220.020 134.279 C 218.277 136.134,211.791 139.033,205.448 140.792 C 187.771 145.696,181.725 149.436,179.700 156.722 C 175.770 170.856,191.640 183.752,204.900 177.201 C 207.001 176.163,209.558 174.419,215.979 169.648 C 218.113 168.062,219.968 166.723,220.101 166.672 C 220.258 166.612,220.606 167.340,221.087 168.739 C 225.150 180.559,229.167 181.810,240.332 174.735 C 248.276 169.701,249.800 168.299,249.800 166.023 C 249.800 164.016,249.354 163.933,247.000 165.500 C 242.723 168.346,236.973 167.589,234.846 163.900 C 234.524 163.342,234.493 161.477,234.399 137.400 L 234.298 111.500 233.748 109.742 C 230.454 99.225,219.209 92.788,206.261 94.009 M283.200 94.117 C 279.372 95.762,259.242 105.413,258.878 105.777 C 258.539 106.116,258.400 106.479,258.400 107.027 C 258.400 108.384,258.575 108.466,264.598 109.894 C 268.435 110.805,270.182 111.838,271.026 113.696 C 271.471 114.676,271.613 163.968,271.177 166.040 C 270.309 170.163,267.559 172.370,261.886 173.499 C 258.444 174.184,257.600 174.652,257.600 175.876 C 257.600 176.832,256.886 176.800,278.433 176.800 C 298.745 176.800,298.786 176.799,299.005 176.390 C 299.763 174.974,298.765 174.248,295.072 173.531 C 289.397 172.429,286.676 170.286,285.702 166.154 C 285.447 165.073,285.406 160.107,285.403 130.180 C 285.401 106.459,285.333 95.269,285.190 94.857 C 285.029 94.395,284.257 93.747,283.941 93.808 C 283.918 93.812,283.585 93.951,283.200 94.117 M322.696 99.459 C 308.635 106.090,309.833 105.472,309.501 106.266 C 308.779 107.994,309.301 108.359,314.242 109.586 C 319.857 110.980,321.398 111.900,322.105 114.278 C 322.472 115.514,322.551 163.135,322.190 165.400 C 321.446 170.065,318.511 172.436,311.937 173.683 C 309.146 174.213,307.940 175.169,308.667 176.277 L 309.009 176.800 331.765 176.800 C 356.621 176.800,355.000 176.886,355.000 175.565 C 355.000 174.470,354.586 174.290,350.487 173.592 C 340.549 171.902,337.207 169.833,336.393 164.864 C 336.050 162.773,336.150 122.339,336.501 120.849 C 337.107 118.278,339.173 115.014,341.990 112.178 C 347.174 106.958,350.511 106.790,360.929 111.225 C 365.625 113.225,366.226 113.004,368.587 108.406 C 370.711 104.272,371.103 102.014,369.889 100.903 C 367.256 98.491,356.826 95.108,353.597 95.618 C 350.387 96.126,346.174 99.834,341.138 106.583 C 335.933 113.559,336.200 113.762,336.200 102.835 C 336.200 94.168,336.209 94.239,335.096 93.919 C 334.820 93.839,330.889 95.596,322.696 99.459 M220.400 140.200 C 220.546 140.473,220.596 143.726,220.557 150.450 L 220.500 160.300 219.958 161.400 C 218.599 164.160,213.489 167.699,208.378 169.422 C 200.099 172.211,192.874 166.802,193.256 158.100 C 193.508 152.353,194.343 151.649,209.068 144.770 C 220.456 139.450,220.080 139.602,220.400 140.200 " stroke="none" fill="#fbfbfb" fill-rule="evenodd"></path><path id="path1" d="M0.000 104.400 L 0.000 208.600 200.000 208.600 L 400.000 208.600 400.000 104.400 L 400.000 0.200 200.000 0.200 L 0.000 0.200 0.000 104.400 M395.100 104.400 L 395.100 203.700 200.000 203.700 L 4.900 203.700 4.849 104.600 C 4.821 50.095,4.840 5.387,4.893 5.250 C 4.968 5.050,44.103 5.010,200.044 5.050 L 395.100 5.100 395.100 104.400 M14.800 104.400 L 14.800 193.800 200.000 193.800 L 385.200 193.800 385.200 104.400 L 385.200 15.000 200.000 15.000 L 14.800 15.000 14.800 104.400 M155.228 29.782 L 155.700 30.165 155.801 97.732 C 155.896 161.898,155.919 165.360,156.259 166.500 C 157.407 170.351,159.992 172.301,165.407 173.402 C 168.895 174.110,169.800 174.608,169.800 175.816 C 169.800 177.074,171.109 177.000,148.887 177.000 C 127.851 177.000,128.147 177.013,127.914 176.084 C 127.586 174.778,128.628 174.126,132.208 173.398 C 137.764 172.269,140.432 170.185,141.426 166.200 C 141.927 164.191,141.824 50.350,141.321 49.336 C 140.437 47.557,138.650 46.510,135.068 45.672 C 129.348 44.335,128.907 44.150,128.708 43.000 C 128.499 41.790,129.058 41.200,131.530 40.020 C 153.438 29.570,154.434 29.140,155.228 29.782 M115.318 50.625 C 116.887 51.020,116.800 50.267,116.800 63.445 C 116.800 76.938,116.920 76.082,115.039 75.961 L 114.100 75.900 113.536 73.500 C 111.614 65.319,110.054 62.728,105.783 60.622 C 102.815 59.160,103.628 59.207,81.665 59.203 L 62.029 59.200 61.615 59.727 C 61.201 60.253,61.200 60.308,61.200 81.537 C 61.200 105.357,61.103 103.797,62.611 104.203 C 64.051 104.591,100.761 104.355,102.449 103.947 C 107.501 102.727,110.355 98.885,110.393 93.257 C 110.402 91.987,110.656 91.800,112.373 91.800 C 114.380 91.800,114.200 90.087,114.200 109.227 C 114.200 128.391,114.370 126.800,112.317 126.800 C 110.500 126.800,110.487 126.784,110.325 124.372 C 109.932 118.526,107.535 114.859,103.234 113.523 C 101.705 113.048,63.511 112.739,62.321 113.192 C 61.155 113.635,61.200 112.634,61.200 138.366 C 61.200 165.530,61.117 164.395,63.299 166.944 C 65.261 169.237,73.220 172.701,77.696 173.211 C 79.759 173.446,80.365 174.487,79.605 176.487 L 79.410 177.000 54.529 177.000 C 33.384 177.000,29.614 176.958,29.415 176.718 C 29.271 176.544,29.204 175.879,29.241 174.968 L 29.300 173.500 30.000 173.365 C 30.385 173.290,31.197 173.142,31.804 173.035 C 35.809 172.330,40.676 169.004,42.378 165.811 C 43.691 163.348,43.608 167.123,43.552 111.962 L 43.500 61.900 43.039 60.760 C 41.603 57.206,35.990 54.200,30.789 54.200 C 29.372 54.200,29.200 53.987,29.200 52.227 C 29.200 51.404,29.298 50.930,29.514 50.714 C 29.916 50.312,113.729 50.225,115.318 50.625 M280.441 51.556 C 283.945 53.281,286.255 57.610,285.607 61.237 C 283.539 72.811,266.162 69.993,267.806 58.350 C 268.630 52.521,275.212 48.982,280.441 51.556 M215.840 94.388 C 225.072 96.367,231.760 102.229,234.055 110.353 C 234.491 111.898,234.492 111.934,234.596 137.733 L 234.700 163.566 235.300 164.416 C 237.425 167.428,243.354 168.014,246.744 165.547 C 249.245 163.727,250.000 163.848,250.000 166.067 C 250.000 168.085,249.020 169.078,243.164 172.996 C 229.452 182.170,225.254 181.420,221.081 169.050 C 220.180 166.382,220.444 166.450,218.040 168.265 C 210.398 174.036,206.154 176.895,203.800 177.857 C 190.751 183.188,176.006 170.606,179.475 157.100 C 181.338 149.850,187.390 145.776,202.700 141.466 C 212.795 138.624,219.958 135.399,220.305 133.539 C 220.676 131.550,220.283 112.102,219.840 110.512 C 217.236 101.176,207.177 97.157,199.724 102.475 C 196.341 104.889,195.066 107.985,195.601 112.485 L 195.861 114.669 195.280 115.147 C 194.231 116.012,187.099 119.282,183.380 120.603 C 179.378 122.025,180.566 112.666,185.217 106.138 C 191.951 96.685,204.353 91.927,215.840 94.388 M284.919 94.221 C 285.290 94.631,285.303 95.587,285.404 129.971 C 285.500 163.044,285.530 165.377,285.862 166.500 C 286.952 170.184,289.701 172.374,294.317 173.235 C 298.649 174.044,299.570 174.532,299.316 175.886 C 299.099 177.044,299.936 177.000,278.313 177.000 C 258.467 177.000,258.195 176.995,257.800 176.600 C 256.473 175.273,257.800 174.213,261.808 173.398 C 267.239 172.294,269.763 170.402,270.967 166.530 C 271.453 164.969,271.575 115.904,271.097 114.261 C 270.368 111.752,268.886 110.978,261.600 109.299 C 258.767 108.645,258.200 108.244,258.200 106.890 C 258.200 105.773,258.900 105.382,271.400 99.500 C 283.755 93.686,284.257 93.490,284.919 94.221 M335.592 93.996 C 336.328 94.390,336.400 95.220,336.400 103.336 C 336.400 113.285,336.168 113.041,340.319 107.465 C 349.904 94.592,352.951 93.401,364.527 97.995 C 371.604 100.804,371.992 101.752,368.764 108.364 C 366.440 113.123,365.572 113.411,360.400 111.142 C 350.915 106.980,347.172 107.194,342.197 112.182 C 339.885 114.500,338.021 117.100,337.090 119.303 L 336.500 120.700 336.500 143.100 L 336.500 165.500 336.967 166.657 C 338.442 170.311,341.960 172.065,350.671 173.492 C 354.730 174.157,355.200 174.392,355.200 175.751 C 355.200 177.098,357.026 177.000,331.835 177.000 C 306.627 177.000,308.400 177.098,308.400 175.700 C 308.400 174.601,309.518 173.969,312.332 173.478 C 318.018 172.485,320.930 170.263,321.892 166.183 C 322.290 164.492,322.359 115.477,321.965 114.161 C 321.377 112.199,319.463 110.960,315.628 110.057 C 309.603 108.639,309.200 108.451,309.200 107.046 C 309.200 105.681,309.314 105.615,322.300 99.488 C 334.106 93.916,334.861 93.605,335.592 93.996 M209.029 144.902 C 194.894 151.513,193.965 152.252,193.381 157.355 C 192.408 165.858,199.487 171.863,207.700 169.503 C 212.846 168.023,218.457 164.232,219.825 161.309 L 220.404 160.073 220.352 150.086 C 220.301 140.269,220.293 140.099,219.900 140.052 C 219.680 140.026,214.788 142.208,209.029 144.902 " stroke="none" fill="#040404" fill-rule="evenodd"></path><path id="path2" d="M4.899 104.400 C 4.899 159.015,4.922 181.357,4.950 154.050 C 4.978 126.742,4.978 82.057,4.950 54.750 C 4.922 27.442,4.899 49.785,4.899 104.400 M395.099 104.400 C 395.099 159.015,395.122 181.357,395.150 154.050 C 395.178 126.742,395.178 82.057,395.150 54.750 C 395.122 27.442,395.099 49.785,395.099 104.400 M14.693 15.050 C 14.640 15.187,14.621 55.485,14.649 104.600 L 14.700 193.900 200.000 193.900 L 385.300 193.900 385.300 104.400 L 385.300 14.900 200.044 14.850 C 51.943 14.810,14.768 14.850,14.693 15.050 M385.200 104.400 L 385.200 193.800 200.000 193.800 L 14.800 193.800 14.800 104.400 L 14.800 15.000 200.000 15.000 L 385.200 15.000 385.200 104.400 M29.262 52.300 C 29.263 52.960,29.300 53.206,29.345 52.846 C 29.389 52.487,29.389 51.947,29.343 51.646 C 29.297 51.346,29.261 51.640,29.262 52.300 M97.450 59.143 C 97.752 59.189,98.248 59.189,98.550 59.143 C 98.853 59.097,98.605 59.060,98.000 59.060 C 97.395 59.060,97.148 59.097,97.450 59.143 M108.800 62.663 C 108.800 62.697,109.093 62.990,109.450 63.313 L 110.100 63.900 109.513 63.250 C 108.965 62.644,108.800 62.508,108.800 62.663 M114.096 109.300 C 114.096 118.540,114.120 122.291,114.150 117.635 C 114.180 112.979,114.180 105.419,114.150 100.835 C 114.120 96.251,114.096 100.060,114.096 109.300 M322.297 139.500 C 322.297 152.590,322.321 157.916,322.350 151.335 C 322.379 144.754,322.379 134.044,322.350 127.535 C 322.321 121.026,322.297 126.410,322.297 139.500 " stroke="none" fill="#626262" fill-rule="evenodd"></path><path id="path3" d="M102.450 5.150 C 156.102 5.178,243.897 5.178,297.550 5.150 C 351.202 5.122,307.305 5.100,200.000 5.100 C 92.695 5.100,48.797 5.122,102.450 5.150 M51.066 50.550 C 62.817 50.578,81.987 50.578,93.666 50.550 C 105.345 50.521,95.730 50.498,72.300 50.498 C 48.870 50.498,39.315 50.521,51.066 50.550 M71.450 59.150 C 76.153 59.180,83.848 59.180,88.550 59.150 C 93.253 59.120,89.405 59.096,80.000 59.096 C 70.595 59.096,66.748 59.120,71.450 59.150 M267.646 59.800 C 267.646 60.185,267.688 60.343,267.738 60.150 C 267.788 59.958,267.788 59.642,267.738 59.450 C 267.688 59.258,267.646 59.415,267.646 59.800 M111.546 91.944 C 111.901 91.989,112.531 91.989,112.946 91.946 C 113.360 91.903,113.070 91.867,112.300 91.866 C 111.530 91.865,111.190 91.900,111.546 91.944 M216.200 104.100 C 216.573 104.485,216.923 104.800,216.978 104.800 C 217.033 104.800,216.773 104.485,216.400 104.100 C 216.027 103.715,215.677 103.400,215.622 103.400 C 215.567 103.400,215.827 103.715,216.200 104.100 M196.200 166.700 C 196.573 167.085,196.923 167.400,196.978 167.400 C 197.033 167.400,196.773 167.085,196.400 166.700 C 196.027 166.315,195.677 166.000,195.622 166.000 C 195.567 166.000,195.827 166.315,196.200 166.700 M79.662 175.100 C 79.663 175.760,79.700 176.006,79.745 175.646 C 79.789 175.287,79.789 174.747,79.743 174.446 C 79.697 174.146,79.661 174.440,79.662 175.100 M102.450 203.750 C 156.102 203.778,243.897 203.778,297.550 203.750 C 351.202 203.722,307.305 203.700,200.000 203.700 C 92.695 203.700,48.797 203.722,102.450 203.750 " stroke="none" fill="#343434" fill-rule="evenodd"></path><path id="path4" d="M30.350 54.141 C 30.598 54.189,31.002 54.189,31.250 54.141 C 31.498 54.093,31.295 54.054,30.800 54.054 C 30.305 54.054,30.102 54.093,30.350 54.141 M99.352 59.141 C 99.601 59.189,99.961 59.187,100.152 59.137 C 100.344 59.087,100.140 59.048,99.700 59.050 C 99.260 59.053,99.104 59.094,99.352 59.141 M43.698 112.400 C 43.698 139.625,43.722 150.762,43.750 137.150 C 43.778 123.537,43.778 101.262,43.750 87.650 C 43.722 74.037,43.698 85.175,43.698 112.400 M114.552 75.941 C 114.801 75.989,115.161 75.987,115.352 75.937 C 115.544 75.887,115.340 75.848,114.900 75.850 C 114.460 75.853,114.304 75.894,114.552 75.941 M207.050 93.938 C 207.243 93.988,207.558 93.988,207.750 93.938 C 207.943 93.888,207.785 93.846,207.400 93.846 C 207.015 93.846,206.857 93.888,207.050 93.938 M210.650 93.938 C 210.843 93.988,211.157 93.988,211.350 93.938 C 211.543 93.888,211.385 93.846,211.000 93.846 C 210.615 93.846,210.457 93.888,210.650 93.938 M336.291 103.400 C 336.291 107.635,336.317 109.368,336.350 107.250 C 336.382 105.133,336.382 101.668,336.350 99.550 C 336.317 97.433,336.291 99.165,336.291 103.400 M346.400 100.100 C 345.914 100.595,345.562 101.000,345.617 101.000 C 345.672 101.000,346.114 100.595,346.600 100.100 C 347.086 99.605,347.438 99.200,347.383 99.200 C 347.328 99.200,346.886 99.605,346.400 100.100 M228.500 101.200 C 229.042 101.750,229.530 102.200,229.585 102.200 C 229.640 102.200,229.242 101.750,228.700 101.200 C 228.158 100.650,227.670 100.200,227.615 100.200 C 227.560 100.200,227.958 100.650,228.500 101.200 M72.150 112.950 C 77.237 112.980,85.562 112.980,90.650 112.950 C 95.738 112.920,91.575 112.896,81.400 112.896 C 71.225 112.896,67.063 112.920,72.150 112.950 M220.493 123.700 C 220.493 129.090,220.518 131.266,220.550 128.536 C 220.581 125.806,220.581 121.396,220.550 118.736 C 220.518 116.076,220.493 118.310,220.493 123.700 M234.497 138.800 C 234.497 152.055,234.521 157.477,234.550 150.850 C 234.579 144.222,234.579 133.377,234.550 126.750 C 234.521 120.123,234.497 125.545,234.497 138.800 M181.060 117.400 C 181.060 118.005,181.097 118.253,181.143 117.950 C 181.189 117.647,181.189 117.153,181.143 116.850 C 181.097 116.547,181.060 116.795,181.060 117.400 M336.296 143.000 C 336.296 154.715,336.321 159.508,336.350 153.650 C 336.379 147.793,336.379 138.208,336.350 132.350 C 336.321 126.493,336.296 131.285,336.296 143.000 M110.450 125.500 C 110.453 125.940,110.494 126.096,110.541 125.848 C 110.589 125.599,110.587 125.239,110.537 125.048 C 110.487 124.856,110.448 125.060,110.450 125.500 M111.546 126.744 C 111.901 126.789,112.531 126.789,112.946 126.746 C 113.360 126.703,113.070 126.667,112.300 126.666 C 111.530 126.665,111.190 126.700,111.546 126.744 M220.493 150.100 C 220.493 155.490,220.518 157.666,220.550 154.936 C 220.581 152.206,220.581 147.796,220.550 145.136 C 220.518 142.476,220.493 144.710,220.493 150.100 M179.054 161.200 C 179.054 161.695,179.093 161.898,179.141 161.650 C 179.189 161.403,179.189 160.998,179.141 160.750 C 179.093 160.503,179.054 160.705,179.054 161.200 M322.250 163.900 C 322.253 164.340,322.294 164.496,322.341 164.248 C 322.389 163.999,322.387 163.639,322.337 163.448 C 322.287 163.256,322.248 163.460,322.250 163.900 M287.400 169.863 C 287.400 169.897,287.693 170.190,288.050 170.513 L 288.700 171.100 288.113 170.450 C 287.565 169.844,287.400 169.708,287.400 169.863 M29.266 175.100 C 29.267 175.870,29.303 176.160,29.346 175.746 C 29.389 175.331,29.389 174.701,29.344 174.346 C 29.300 173.990,29.265 174.330,29.266 175.100 M42.050 176.950 C 48.843 176.979,59.958 176.979,66.750 176.950 C 73.543 176.921,67.985 176.897,54.400 176.897 C 40.815 176.897,35.258 176.921,42.050 176.950 M138.750 176.950 C 144.277 176.980,153.322 176.980,158.850 176.950 C 164.377 176.920,159.855 176.896,148.800 176.896 C 137.745 176.896,133.222 176.920,138.750 176.950 M268.350 176.950 C 273.877 176.980,282.922 176.980,288.450 176.950 C 293.977 176.920,289.455 176.896,278.400 176.896 C 267.345 176.896,262.822 176.920,268.350 176.950 M320.450 176.950 C 326.693 176.979,336.908 176.979,343.150 176.950 C 349.393 176.921,344.285 176.897,331.800 176.897 C 319.315 176.897,314.208 176.921,320.450 176.950 M196.954 179.145 C 197.313 179.189,197.853 179.189,198.154 179.143 C 198.454 179.097,198.160 179.061,197.500 179.062 C 196.840 179.063,196.594 179.100,196.954 179.145 M229.650 179.338 C 229.843 179.388,230.157 179.388,230.350 179.338 C 230.543 179.288,230.385 179.246,230.000 179.246 C 229.615 179.246,229.457 179.288,229.650 179.338 " stroke="none" fill="#848484" fill-rule="evenodd"></path></g></svg>